<svg width="418" height="120" viewBox="0 0 418 120" fill="none" xmlns="http://www.w3.org/2000/svg">
<path d="M223.048 11.2812V96.1616H210.485V11.2812H223.048Z" fill="black"/>
<path fill-rule="evenodd" clip-rule="evenodd" d="M243.358 95.3627C246.746 96.9135 250.537 97.6889 254.73 97.6889C262.498 97.6889 269.391 93.967 274.314 89.2011H274.805V96.2243H287.383V52.2845C287.383 47.4598 286.551 43.5397 284.885 40.5242C283.219 37.48 281.08 35.1394 278.466 33.5025C275.882 31.8655 273.096 30.7455 270.109 30.1424C267.151 29.5106 264.351 29.1947 261.709 29.1947C257.717 29.1947 253.912 29.769 250.293 30.9178C246.675 32.0378 243.472 33.8471 240.687 36.3456C237.93 38.8154 235.833 42.0607 234.397 46.0813L246.502 48.8383C247.45 46.5121 249.159 44.4012 251.629 42.5058C254.127 40.5816 257.545 39.6196 261.881 39.6196C266.045 39.6196 269.176 40.6534 271.272 42.7212C273.397 44.7889 274.46 47.7039 274.46 51.4661V51.7676C274.46 53.3184 273.9 54.4384 272.78 55.1277C271.66 55.8169 269.865 56.3195 267.395 56.6354C264.925 56.9226 261.709 57.296 257.746 57.7555C254.615 58.1288 251.542 58.6745 248.527 59.3924C245.511 60.1104 242.783 61.173 240.342 62.5802C237.901 63.9874 235.962 65.8972 234.526 68.3096C233.091 70.722 232.373 73.7949 232.373 77.5284C232.373 81.8649 233.349 85.5265 235.302 88.5133C237.283 91.5 239.969 93.7832 243.358 95.3627ZM266.663 85.2393C264.136 86.6466 261.091 87.3502 257.53 87.3502C253.883 87.3502 250.882 86.546 248.527 84.9378C246.172 83.3008 244.994 80.8884 244.994 77.7006C244.994 75.4031 245.598 73.5652 246.804 72.1866C248.039 70.7794 249.676 69.7025 251.715 68.9558C253.782 68.2091 256.066 67.6778 258.564 67.3619C259.627 67.2183 260.948 67.046 262.527 66.845C264.107 66.6152 265.729 66.3711 267.395 66.1126C269.061 65.8254 270.54 65.4952 271.832 65.1218C273.153 64.7198 274.044 64.289 274.503 63.8295C274.503 64.7748 274.528 65.7346 274.553 66.7009V66.7088L274.553 66.7139C274.67 71.185 274.789 75.7917 272.478 79.7253C271.157 81.9941 269.219 83.8321 266.663 85.2393Z" fill="black"/>
<path d="M309.805 93.2088C314.428 96.1094 319.942 97.5597 326.347 97.5597C331.573 97.5597 336.125 96.5976 340.002 94.6734C343.908 92.7493 347.024 90.1072 349.35 86.7471C351.677 83.387 353.069 79.5674 353.529 75.2883H340.993C340.448 77.6719 339.485 79.711 338.107 81.4054C336.757 83.0998 335.077 84.4065 333.067 85.3255C331.085 86.2158 328.874 86.6609 326.433 86.6609C322.785 86.6609 319.612 85.6988 316.913 83.7747C314.242 81.8505 312.174 79.1366 310.709 75.6329C309.245 72.1292 308.512 67.965 308.512 63.1402C308.512 58.4304 309.259 54.3523 310.752 50.906C312.246 47.4311 314.328 44.7602 316.999 42.8935C319.698 40.9981 322.843 40.0503 326.433 40.0503C330.54 40.0503 333.814 41.1704 336.255 43.4104C338.724 45.6505 340.304 48.3213 340.993 51.423H353.529C353.069 46.9716 351.619 43.0802 349.178 39.7488C346.766 36.4174 343.592 33.8327 339.658 31.9947C335.723 30.128 331.243 29.1947 326.217 29.1947C319.985 29.1947 314.572 30.645 309.977 33.5455C305.382 36.4461 301.821 40.4811 299.294 45.6505C296.766 50.7912 295.503 56.7216 295.503 63.4418C295.503 70.0758 296.738 75.9632 299.207 81.1038C301.677 86.2445 305.21 90.2795 309.805 93.2088Z" fill="black"/>
<path d="M369.461 119.419C367.537 119.419 365.785 119.262 364.206 118.946C362.626 118.658 361.449 118.342 360.673 117.998L363.775 107.444C366.13 108.076 368.226 108.348 370.064 108.262C371.902 108.176 373.525 107.487 374.932 106.194C376.368 104.902 377.632 102.791 378.723 99.862L379.498 97.0886L355.288 30.059H369.074L385.831 81.4081H386.52L403.278 30.059H417.106L389.837 105.058C388.574 108.504 387.784 109.799 385.831 112.182C383.878 114.595 381.552 116.404 378.852 117.61C376.153 118.816 373.022 119.419 369.461 119.419Z" fill="black"/>
<path fill-rule="evenodd" clip-rule="evenodd" d="M138.635 96.226V11.3971H171.223C178.087 11.3971 183.773 12.6464 188.282 15.1449C192.791 17.6434 196.165 21.061 198.406 25.3975C200.646 29.7053 201.766 34.5588 201.766 39.9579C201.766 45.3858 200.631 50.268 198.362 54.6045C196.122 58.9123 192.734 62.3299 188.196 64.8571C183.687 67.3556 178.015 68.6049 171.18 68.6049H151.606V96.226H138.635ZM151.606 22.8128V57.3184H170.653C174.989 57.3184 178.508 56.5717 181.207 55.0784C183.907 53.5563 185.888 51.4885 187.152 48.8751C188.416 46.2617 189.047 43.2893 189.047 39.9579C189.047 36.6266 188.416 33.6685 187.152 31.0838C185.888 28.4991 183.892 26.4745 181.164 25.0098C178.464 23.5452 174.903 22.8128 170.481 22.8128H151.606Z" fill="black"/>
<path fill-rule="evenodd" clip-rule="evenodd" d="M13.1786 56C13.1786 32.3504 32.3504 13.1786 56 13.1786C79.6496 13.1786 98.8214 32.3504 98.8214 56C98.8214 79.6496 79.6496 98.8214 56 98.8214C48.2369 98.8214 42.6969 97.0042 39.5349 94.8635C36.3609 92.7147 36.3501 90.9872 36.5193 90.2797C36.8037 89.0896 38.5382 86.1547 45.4004 83.3927C55.6137 79.2819 67.1064 78.631 78.0007 78.631L78.0007 40.7862L56.59 28.7867L35.1793 40.7862V74.862C29.7691 78.0541 25.9147 82.2595 24.6744 87.4483C22.9194 94.7903 27.0026 101.086 32.7074 104.948C38.4242 108.819 46.5479 111 56 111C86.3757 111 111 86.3757 111 56C111 25.6243 86.3757 1 56 1C25.6243 1 1 25.6243 1 56C1 64.732 3.18615 75.1777 9.21168 84.6917L19.5004 78.1755C14.9053 70.9201 13.1786 62.8206 13.1786 56ZM47.3579 69.9246C52.5622 68.4964 58.7011 67.4531 65.8221 66.8896V47.9216L56.59 42.7475L47.3579 47.9216V69.9246Z" fill="black"/>
</svg>