<svg width="112" height="112" viewBox="0 0 112 112" fill="none" xmlns="http://www.w3.org/2000/svg">
<path fill-rule="evenodd" clip-rule="evenodd" d="M13.1786 56C13.1786 32.3504 32.3504 13.1786 56 13.1786C79.6496 13.1786 98.8214 32.3504 98.8214 56C98.8214 79.6496 79.6496 98.8214 56 98.8214C48.2369 98.8214 42.6969 97.0042 39.5349 94.8635C36.3609 92.7147 36.3501 90.9872 36.5193 90.2797C36.8037 89.0896 38.5382 86.1547 45.4004 83.3927C55.6137 79.2819 67.1064 78.631 78.0007 78.631L78.0007 40.7862L56.59 28.7867L35.1793 40.7862V74.862C29.7691 78.0541 25.9147 82.2595 24.6744 87.4483C22.9194 94.7903 27.0026 101.086 32.7074 104.948C38.4242 108.819 46.5479 111 56 111C86.3757 111 111 86.3757 111 56C111 25.6243 86.3757 1 56 1C25.6243 1 1 25.6243 1 56C1 64.732 3.18615 75.1777 9.21168 84.6917L19.5004 78.1755C14.9053 70.9201 13.1786 62.8206 13.1786 56ZM47.3579 69.9246C52.5622 68.4964 58.7011 67.4531 65.8221 66.8896V47.9216L56.59 42.7475L47.3579 47.9216V69.9246Z" fill="black"/>
</svg>
